# xmcd CD database file
#
# Track frame offsets:
#	150
#	13240
#	36425
#	43265
#	56295
#	88307
#	105397
#	125382
#	143407
#	162592
#	171932
#	195975
#
# Disc length: 3022 seconds
#
# Revision: 0
# Processed by: cddbd v1.5.1PL2 Copyright (c) Steve Scherf et al.
# Submitted via: CDex 1.51
#
DISCID=a00bcc0c
DTITLE=Triologia del Cosmos - El Sonido del Universo
DYEAR=1994
DGENRE=New Age
TTITLE0=First Dawn
TTITLE1=Blood And Sand
TTITLE2=Against The Time
TTITLE3=Free K-2
TTITLE4=Assos
TTITLE5=Grace
TTITLE6=Falling Star
TTITLE7=Awakening
TTITLE8=Emblisi
TTITLE9=From Pole To Pole-Migrating Terns
TTITLE10=A Matter Of Time
TTITLE11=Secret Bay
EXTD=YEAR: 1994
EXTT0=
EXTT1=
EXTT2=
EXTT3=
EXTT4=
EXTT5=
EXTT6=
EXTT7=
EXTT8=
EXTT9=
EXTT10=
EXTT11=
PLAYORDER=
